<?xml version="1.0" encoding="utf-8"?>
<!-- Generator: Adobe Illustrator 16.0.0, SVG Export Plug-In . SVG Version: 6.00 Build 0)  -->
<!DOCTYPE svg PUBLIC "-//W3C//DTD SVG 1.1//EN" "http://www.w3.org/Graphics/SVG/1.1/DTD/svg11.dtd">
<svg version="1.1" id="Layer_1" xmlns="http://www.w3.org/2000/svg" xmlns:xlink="http://www.w3.org/1999/xlink" x="0px" y="0px"
	 width="432px" height="144px" viewBox="0 0 432 144" enable-background="new 0 0 432 144" xml:space="preserve">
<path fill="#FFFFFF" d="M402.038,96.363l-10.613-0.086V36.667H290.937v58.801l-12.271-0.099c0,0,2.653,11.276,13.599,11.276
	c10.944,0,101.153,0.331,101.153,0.331S403.033,102.665,402.038,96.363z M351.299,102.002h-22.883v-2.321h22.883V102.002z
	 M385.126,91.388h-87.223V42.968h87.223V91.388z"/>
<path fill="#FFFFFF" d="M229.565,32.166h-28.449c-6.654,0-12.049,5.395-12.049,12.049v50.538c0,6.654,5.395,12.049,12.049,12.049
	h28.449c6.654,0,12.048-5.395,12.048-12.049V44.215C241.613,37.561,236.22,32.166,229.565,32.166z M200.364,65.803h29.118
	c1.247,0,2.259,1.011,2.259,2.259s-1.012,2.26-2.259,2.26h-29.118c-1.249,0-2.259-1.012-2.259-2.26S199.115,65.803,200.364,65.803z
	 M229.815,94.753h-29.118c-1.248,0-2.259-1.012-2.259-2.259c0-1.25,1.012-2.26,2.259-2.26h29.118c1.248,0,2.26,1.01,2.26,2.26
	C232.075,93.741,231.063,94.753,229.815,94.753z M229.815,83.038h-29.118c-1.248,0-2.259-1.011-2.259-2.259s1.012-2.26,2.259-2.26
	h29.118c1.248,0,2.26,1.012,2.26,2.26S231.063,83.038,229.815,83.038z"/>
<g>
	<path fill="#FFFFFF" d="M167.038,45.228l-0.137,18.92c-0.001,0.188,0.002,0.375,0.012,0.561c0.067,1.293,0.403,2.514,0.945,3.618
		h-0.001c0,0,0.008,0.014,0.016,0.028c0.174,0.35,0.369,0.684,0.582,1.007c1.801,3.119,7.099,12.301,7.548,13.141
		c0.432,0.803,5.673-8.812,7.816-12.811c1.103-1.521,1.767-3.385,1.781-5.407l0.139-19.373
		C182.815,42.573,175.449,38.253,167.038,45.228z M176.263,78.08l-6.377-11.733c0,0,6.084-4.699,12.649,0.092L176.263,78.08z"/>
	<path fill="#FFFFFF" d="M185.749,43.669v-0.1c0.039-5.164-4.118-9.379-9.28-9.417c-5.164-0.038-9.379,4.118-9.418,9.282
		l-0.002,0.439C169.474,41.817,176.831,36.918,185.749,43.669z"/>
</g>
<g>
	<path fill="#FFFFFF" d="M119.737,32.851H49.089c-8.591,0-15.556,6.964-15.556,15.556v38.242c0,8.59,6.964,15.555,15.556,15.555
		h3.739l0.15,18.148l25.773-18.148h40.986c8.591,0,15.556-6.965,15.556-15.555V48.407C135.293,39.815,128.329,32.851,119.737,32.851
		z M130.418,84.049c0,7.521-6.306,13.618-14.084,13.618H76.699l-17.995,13.07l-0.1-13.07h-6.234
		c-7.778,0-14.084-6.097-14.084-13.618V50.573c0-7.52,6.306-13.617,14.084-13.617h63.964c7.778,0,14.084,6.097,14.084,13.617V84.049
		z"/>
	<circle fill="#FFFFFF" cx="64.51" cy="65.934" r="6.698"/>
	<circle fill="#FFFFFF" cx="84.738" cy="65.907" r="6.698"/>
	<circle fill="#FFFFFF" cx="104.777" cy="65.96" r="6.698"/>
</g>
</svg>
